<svg width="265" height="94" viewBox="0 0 265 94" fill="none" xmlns="http://www.w3.org/2000/svg">
<rect width="264" height="73" transform="translate(0 10)" fill="#F9F9F4"/>
<path d="M130.5 19.5C152.413 19.5 172.23 22.5734 186.552 27.5273C193.715 30.005 199.475 32.9439 203.436 36.1826C207.4 39.4245 209.5 42.914 209.5 46.5C209.5 50.086 207.4 53.5755 203.436 56.8174C199.475 60.0561 193.715 62.995 186.552 65.4727C172.23 70.4266 152.413 73.5 130.5 73.5C108.587 73.5 88.7696 70.4266 74.4482 65.4727C67.2855 62.995 61.5247 60.0561 57.5645 56.8174C53.6004 53.5755 51.5 50.086 51.5 46.5C51.5 42.914 53.6004 39.4245 57.5645 36.1826C61.5247 32.9439 67.2855 30.005 74.4482 27.5273C88.7696 22.5734 108.587 19.5 130.5 19.5Z" fill="#F9F9F4" stroke="#29489F"/>
<g clip-path="url(#clip0_67_384)">
<path d="M80.8319 35C81.4689 42.3333 81.4782 49.6667 80.8319 57C80.1855 49.6667 80.1949 42.3333 80.8319 35Z" fill="#29489F"/>
<path d="M93 46.0367C85.0281 46.6632 76.9625 46.6632 69 46.0367C76.9719 45.4103 85.0375 45.4103 93 46.0367Z" fill="#29489F"/>
<path d="M82.2081 46.037C82.2081 46.166 81.0371 47.4742 80.8685 47.4189C80.5125 47.2991 79.4634 46.2397 79.4727 46.037C79.4727 45.7422 80.6718 44.6274 80.9153 44.6274C81.0465 44.6274 82.2081 45.733 82.2081 46.037Z" fill="#29489F" stroke="#29489F" stroke-miterlimit="10"/>
</g>
<path d="M113.568 42.3223C113.425 41.6204 113.135 40.9938 112.698 40.4424C112.269 39.8838 111.724 39.4505 111.065 39.1426C110.414 38.8275 109.701 38.6699 108.928 38.6699C107.939 38.6699 107.044 38.9242 106.242 39.4326C105.447 39.9411 104.817 40.6895 104.352 41.6777C103.893 42.666 103.664 43.8477 103.664 45.2227C103.664 46.5977 103.893 47.7793 104.352 48.7676C104.817 49.7559 105.447 50.5042 106.242 51.0127C107.044 51.5212 107.939 51.7754 108.928 51.7754C109.701 51.7754 110.414 51.6214 111.065 51.3135C111.724 50.9984 112.269 50.5651 112.698 50.0137C113.135 49.4551 113.425 48.8249 113.568 48.123H115.115C114.943 49.0898 114.575 49.96 114.009 50.7334C113.443 51.5068 112.723 52.1156 111.85 52.5596C110.976 52.9964 110.002 53.2148 108.928 53.2148C107.617 53.2148 106.45 52.889 105.426 52.2373C104.402 51.5785 103.6 50.6439 103.02 49.4336C102.447 48.2233 102.16 46.8197 102.16 45.2227C102.16 43.6257 102.447 42.222 103.02 41.0117C103.6 39.8014 104.402 38.8704 105.426 38.2188C106.45 37.5599 107.617 37.2305 108.928 37.2305C110.002 37.2305 110.976 37.4489 111.85 37.8857C112.723 38.3226 113.439 38.9277 113.998 39.7012C114.564 40.4674 114.936 41.3411 115.115 42.3223H113.568ZM123.434 53.2363C122.424 53.2363 121.525 52.9857 120.738 52.4844C119.957 51.9759 119.348 51.2669 118.912 50.3574C118.475 49.4408 118.256 48.3952 118.256 47.2207C118.256 46.0391 118.475 44.9899 118.912 44.0732C119.348 43.1566 119.961 42.444 120.748 41.9355C121.536 41.4199 122.431 41.1621 123.434 41.1621C124.437 41.1621 125.328 41.4199 126.109 41.9355C126.897 42.444 127.505 43.1566 127.935 44.0732C128.372 44.9899 128.59 46.0391 128.59 47.2207C128.59 48.3952 128.372 49.4408 127.935 50.3574C127.505 51.2669 126.897 51.9759 126.109 52.4844C125.328 52.9857 124.437 53.2363 123.434 53.2363ZM123.434 51.9258C124.2 51.9258 124.863 51.7181 125.421 51.3027C125.98 50.8802 126.402 50.3109 126.689 49.5947C126.982 48.8786 127.129 48.0872 127.129 47.2207C127.129 46.3542 126.982 45.5628 126.689 44.8467C126.402 44.1234 125.98 43.5505 125.421 43.1279C124.863 42.7054 124.2 42.4941 123.434 42.4941C122.661 42.4941 121.991 42.7054 121.425 43.1279C120.867 43.5505 120.44 44.1234 120.147 44.8467C119.86 45.5628 119.717 46.3542 119.717 47.2207C119.717 48.0872 119.86 48.8786 120.147 49.5947C120.44 50.3109 120.867 50.8802 121.425 51.3027C121.991 51.7181 122.661 51.9258 123.434 51.9258ZM133.729 53H132.247V41.334H133.665V43.1816H133.794C134.08 42.5586 134.513 42.0716 135.094 41.7207C135.681 41.3626 136.393 41.1836 137.231 41.1836C138.026 41.1836 138.721 41.3483 139.315 41.6777C139.91 42.0072 140.368 42.4941 140.69 43.1387C141.02 43.776 141.184 44.5495 141.184 45.459V53H139.723V45.5664C139.723 44.9434 139.605 44.4027 139.369 43.9443C139.14 43.486 138.807 43.1351 138.37 42.8916C137.94 42.641 137.432 42.5156 136.845 42.5156C136.243 42.5156 135.706 42.6481 135.233 42.9131C134.761 43.1709 134.392 43.5469 134.127 44.041C133.862 44.528 133.729 45.1009 133.729 45.7598V53ZM150.126 42.5801H147.677V49.8848C147.677 50.5723 147.835 51.0592 148.15 51.3457C148.465 51.6322 148.873 51.7754 149.374 51.7754L149.911 51.7539C150.026 51.7396 150.169 51.7324 150.341 51.7324V53.1074C149.868 53.1504 149.503 53.1719 149.245 53.1719C148.723 53.1719 148.225 53.0609 147.752 52.8389C147.287 52.6097 146.911 52.2767 146.624 51.8398C146.338 51.3958 146.195 50.8659 146.195 50.25V42.5801H144.454V41.334H146.195V38.541H147.677V41.334H150.126V42.5801ZM153.289 49.7344C153.289 48.6243 153.675 47.7972 154.449 47.2529C155.229 46.7087 156.275 46.3828 157.586 46.2754C158.087 46.2396 158.642 46.2074 159.251 46.1787C159.866 46.1429 160.386 46.1143 160.808 46.0928V44.9863C160.808 44.1986 160.561 43.5827 160.067 43.1387C159.58 42.6947 158.882 42.4727 157.972 42.4727C157.22 42.4727 156.594 42.6338 156.092 42.9561C155.598 43.2712 155.28 43.6973 155.136 44.2344H153.611C153.69 43.6257 153.926 43.0885 154.32 42.623C154.721 42.1576 155.244 41.7995 155.888 41.5488C156.533 41.291 157.256 41.1621 158.058 41.1621C158.731 41.1621 159.383 41.2803 160.013 41.5166C160.651 41.7458 161.184 42.154 161.614 42.7412C162.051 43.3285 162.269 44.1198 162.269 45.1152V53H160.808V51.1953H160.722C160.45 51.7682 160.01 52.2552 159.401 52.6562C158.792 53.0573 158.037 53.2578 157.134 53.2578C156.418 53.2578 155.767 53.1182 155.179 52.8389C154.599 52.5596 154.137 52.1549 153.794 51.625C153.457 51.0951 153.289 50.4648 153.289 49.7344ZM154.75 49.7988C154.75 50.472 154.99 50.9984 155.469 51.3779C155.949 51.7575 156.576 51.9473 157.349 51.9473C158.044 51.9473 158.653 51.7969 159.175 51.4961C159.698 51.1882 160.099 50.7764 160.379 50.2607C160.665 49.7451 160.808 49.1758 160.808 48.5527V47.3066L157.8 47.5215C156.776 47.5931 156.01 47.8223 155.502 48.209C155 48.5957 154.75 49.1257 154.75 49.7988ZM171.146 53.2363C170.108 53.2363 169.195 52.9785 168.407 52.4629C167.619 51.9473 167.011 51.2347 166.581 50.3252C166.159 49.4157 165.947 48.3809 165.947 47.2207C165.947 46.0534 166.162 45.0114 166.592 44.0947C167.029 43.1781 167.637 42.4619 168.418 41.9463C169.206 41.4235 170.108 41.1621 171.125 41.1621C171.906 41.1621 172.618 41.3161 173.263 41.624C173.907 41.932 174.434 42.3617 174.842 42.9131C175.257 43.4645 175.515 44.0983 175.615 44.8145H174.154C174.061 44.3848 173.879 43.9945 173.606 43.6436C173.334 43.2926 172.987 43.0133 172.564 42.8057C172.149 42.598 171.676 42.4941 171.146 42.4941C170.416 42.4941 169.768 42.6911 169.202 43.085C168.636 43.4788 168.196 44.0303 167.881 44.7393C167.566 45.4482 167.408 46.2611 167.408 47.1777C167.408 48.1016 167.562 48.9251 167.87 49.6484C168.185 50.3646 168.622 50.9232 169.181 51.3242C169.746 51.7253 170.402 51.9258 171.146 51.9258C171.898 51.9258 172.547 51.7145 173.091 51.292C173.642 50.8695 173.997 50.3001 174.154 49.584H175.637C175.529 50.2858 175.275 50.916 174.874 51.4746C174.473 52.026 173.95 52.4593 173.306 52.7744C172.668 53.0824 171.949 53.2363 171.146 53.2363ZM183.891 42.5801H181.442V49.8848C181.442 50.5723 181.599 51.0592 181.914 51.3457C182.23 51.6322 182.638 51.7754 183.139 51.7754L183.676 51.7539C183.791 51.7396 183.934 51.7324 184.106 51.7324V53.1074C183.633 53.1504 183.268 53.1719 183.01 53.1719C182.487 53.1719 181.99 53.0609 181.517 52.8389C181.051 52.6097 180.676 52.2767 180.389 51.8398C180.103 51.3958 179.959 50.8659 179.959 50.25V42.5801H178.219V41.334H179.959V38.541H181.442V41.334H183.891V42.5801Z" fill="#29489F"/>
<g clip-path="url(#clip1_67_384)">
<path d="M237.338 51.8741C236.938 52.9969 235.233 54.2788 233.609 55.2865C231.519 56.5886 229.23 57.559 226.822 58.0642C225.017 58.4428 222.909 58.6732 221.463 58.1583M221.463 58.1583C222.909 58.6732 224.399 60.1836 225.558 61.6172C227.105 63.5316 228.266 65.7298 229.064 68.0564C229.686 69.8648 230.197 71.9391 229.799 73.0589M221.463 58.1583L257.78 71.0828" stroke="#29489F"/>
</g>
<g clip-path="url(#clip2_67_384)">
<path d="M54.3696 79.9702C53.9859 79.1566 54.2167 77.5627 54.5494 76.1592C54.975 74.3501 55.6836 72.6126 56.7036 71.0607C57.4684 69.8971 58.4737 68.6523 59.522 68.158M59.522 68.158C58.4737 68.6523 56.8727 68.6367 55.4894 68.4861C53.6426 68.2847 51.8512 67.7262 50.1857 66.9059C48.8907 66.2687 47.513 65.4306 47.1303 64.6192M59.522 68.158L33.2059 80.5681" stroke="#29489F"/>
</g>
<g clip-path="url(#clip3_67_384)">
<path d="M28.9505 22.3302C28.5561 23.3277 28.9526 25.2068 29.4558 26.8514C30.1006 28.9716 31.0766 30.985 32.409 32.7538C33.4081 34.0799 34.6996 35.4842 35.9847 35.9923M35.9847 35.9923C34.6996 35.4842 32.7956 35.6253 31.1611 35.9102C28.9789 36.2911 26.8899 37.0927 24.9707 38.1962C23.4784 39.0534 21.9031 40.156 21.5098 41.1508M35.9847 35.9923L3.72087 23.2369" stroke="#29489F"/>
</g>
<defs>
<clipPath id="clip0_67_384">
<rect width="24" height="22" fill="white" transform="translate(69 35)"/>
</clipPath>
<clipPath id="clip1_67_384">
<rect width="38.5481" height="38.5481" fill="white" transform="translate(227.925 40) rotate(19.5897)"/>
</clipPath>
<clipPath id="clip2_67_384">
<rect width="29.0955" height="29.0955" fill="white" transform="translate(65.7266 81.3159) rotate(154.752)"/>
</clipPath>
<clipPath id="clip3_67_384">
<rect width="34.6938" height="34.6938" fill="white" transform="matrix(-0.929961 -0.367657 -0.367657 0.929961 45.0195 12.7554)"/>
</clipPath>
</defs>
</svg>
